<svg version="1.1" viewBox="0.0 0.0 558.8136482939633 122.1259842519685" fill="none" stroke="none" stroke-linecap="square" stroke-miterlimit="10" xmlns:xlink="http://www.w3.org/1999/xlink" xmlns="http://www.w3.org/2000/svg"><clipPath id="p.0"><path d="m0 0l558.81366 0l0 122.125984l-558.81366 0l0 -122.125984z" clip-rule="nonzero"/></clipPath><g clip-path="url(#p.0)"><path fill="#000000" fill-opacity="0.0" d="m0 0l558.81366 0l0 122.125984l-558.81366 0z" fill-rule="evenodd"/><path fill="#e06666" d="m0 0q14.003937 9.682237 28.007874 14.5233555l-14.003937 4.1825523q42.01181 21.785032 84.02362 0l-14.003937 -4.1825523q14.003937 -4.841119 28.007874 -14.5233555l-14.003937 52.869595l14.003937 35.92568q-7.0019684 4.841118 -14.003937 8.471962l0 10.233948q-42.01181 21.785042 -84.02362 0l0 -10.233948q-7.0019684 -3.630844 -14.003937 -8.471962l14.003937 -35.92568z" fill-rule="evenodd"/><path fill="#b35151" d="m28.007874 24.757307q28.007874 9.682238 56.015747 0l0 -10.233952l14.003937 4.1825523q-42.01181 21.785032 -84.02362 0l14.003937 -4.1825523z" fill-rule="evenodd"/><path fill="#000000" fill-opacity="0.0" d="m0 0q14.003937 9.682237 28.007874 14.5233555l-14.003937 4.1825523q42.01181 21.785032 84.02362 0l-14.003937 -4.1825523q14.003937 -4.841119 28.007874 -14.5233555l-14.003937 52.869595l14.003937 35.92568q-7.0019684 4.841118 -14.003937 8.471962l0 10.233948q-42.01181 21.785042 -84.02362 0l0 -10.233948q-7.0019684 -3.630844 -14.003937 -8.471962l14.003937 -35.92568zm14.003937 97.267235l0 -78.561325m84.02362 0l0 78.561325m-70.019684 -82.74388l0 10.233952m56.015747 0l0 -10.233952" fill-rule="evenodd"/><path stroke="#f9cb9c" stroke-width="1.0" stroke-linejoin="round" stroke-linecap="butt" d="m0 0q14.003937 9.682237 28.007874 14.5233555l-14.003937 4.1825523q42.01181 21.785032 84.02362 0l-14.003937 -4.1825523q14.003937 -4.841119 28.007874 -14.5233555l-14.003937 52.869595l14.003937 35.92568q-7.0019684 4.841118 -14.003937 8.471962l0 10.233948q-42.01181 21.785042 -84.02362 0l0 -10.233948q-7.0019684 -3.630844 -14.003937 -8.471962l14.003937 -35.92568zm14.003937 97.267235l0 -78.561325m84.02362 0l0 78.561325m-70.019684 -82.74388l0 10.233952m56.015747 0l0 -10.233952" fill-rule="evenodd"/><path fill="#666666" d="m94.74016 74.46457l-15.626907 5.5572968l0 -11.1145935zm-11.344818 -27.383179l-7.1182632 14.980953l-7.859108 -7.8591003zm-27.379593 -11.341232l5.5573006 15.626907l-11.114597 0zm-27.383177 11.341232l14.980955 7.121853l-7.859104 7.8591003zm-11.341232 27.383179l15.626909 -5.5572968l0 11.1145935zm11.341232 27.379593l7.121851 -14.977371l7.859104 7.8591003zm27.383177 11.344818l-5.5572968 -15.626915l11.114597 0zm27.379593 -11.344818l-14.977371 -7.118271l7.859108 -7.8591003zm-46.7418 -27.379593l0 0c0 -10.693451 8.668755 -19.362206 19.362206 -19.362206c10.693451 0 19.362206 8.668755 19.362206 19.362206c0 10.693451 -8.668755 19.362206 -19.362206 19.362206c-10.693451 0 -19.362206 -8.668755 -19.362206 -19.362206z" fill-rule="evenodd"/><path fill="#434343" d="m155.61417 59.19685l0 0c0 -32.69352 25.079117 -59.19685 56.015762 -59.19685l0 0c14.856293 0 29.10411 6.236793 39.6091 17.338356c10.50499 11.1015625 16.406631 26.158512 16.406631 41.858494l0 0c0 32.693516 -25.079102 59.19685 -56.01573 59.19685l0 0c-30.936646 0 -56.015762 -26.503334 -56.015762 -59.19685z" fill-rule="evenodd"/><path stroke="#999999" stroke-width="1.0" stroke-linejoin="round" stroke-linecap="butt" d="m155.61417 59.19685l0 0c0 -32.69352 25.079117 -59.19685 56.015762 -59.19685l0 0c14.856293 0 29.10411 6.236793 39.6091 17.338356c10.50499 11.1015625 16.406631 26.158512 16.406631 41.858494l0 0c0 32.693516 -25.079102 59.19685 -56.01573 59.19685l0 0c-30.936646 0 -56.015762 -26.503334 -56.015762 -59.19685z" fill-rule="evenodd"/><path fill="#666666" d="m218.29059 98.66718l0 0c-21.79567 0 -39.46457 -17.668884 -39.46457 -39.464565c0 -21.795677 17.6689 -39.46457 39.46457 -39.46457l0 0c-12.421753 9.31632 -19.732285 23.937368 -19.732285 39.46457c0 15.527203 7.3105316 30.14825 19.732285 39.464565z" fill-rule="evenodd"/><path fill="#cccccc" d="m300.98727 89.92625l0 0c0 -15.724899 26.249512 -28.472446 58.629913 -28.472446l0 0c32.380432 0 58.629944 12.747547 58.629944 28.472446l0 0c0 15.724892 -26.249512 28.472435 -58.629944 28.472435l0 0c-32.3804 0 -58.629913 -12.747543 -58.629913 -28.472435z" fill-rule="evenodd"/><path fill="#666666" d="m307.42014 52.632427l0 0c5.5489197 -14.776878 34.710358 -18.020168 65.13385 -7.244095l0 0c30.423492 10.776077 50.588318 31.49084 45.039368 46.26772l0 0c-5.54895 14.776878 -34.710358 18.020172 -65.13385 7.244095l0 0c-30.423523 -10.776077 -50.588318 -31.490837 -45.039368 -46.26772z" fill-rule="evenodd"/><path stroke="#000000" stroke-width="1.0" stroke-linejoin="round" stroke-linecap="butt" d="m307.42014 52.632427l0 0c5.5489197 -14.776878 34.710358 -18.020168 65.13385 -7.244095l0 0c30.423492 10.776077 50.588318 31.49084 45.039368 46.26772l0 0c-5.54895 14.776878 -34.710358 18.020172 -65.13385 7.244095l0 0c-30.423523 -10.776077 -50.588318 -31.490837 -45.039368 -46.26772z" fill-rule="evenodd"/><path fill="#000000" d="m341.94223 18.228394l0 0c-3.7790222 10.067238 9.275238 23.939362 29.157501 30.984253c19.882233 7.0448914 39.063477 4.594795 42.8425 -5.4724426l-13.685028 36.456696c-3.7790222 10.067238 -22.960266 12.517334 -42.84253 5.4724426c-19.882233 -7.0448914 -32.936493 -20.917015 -29.15747 -30.984257z" fill-rule="evenodd"/><path fill="#666666" d="m341.94223 18.228394l0 0c3.7790222 -10.067237 22.960266 -12.517332 42.84253 -5.4724407c19.882263 7.0448933 32.936493 20.917013 29.15747 30.984251l0 0c-3.7790222 10.067238 -22.960266 12.517334 -42.8425 5.4724426c-19.882263 -7.0448914 -32.936523 -20.917015 -29.157501 -30.984253z" fill-rule="evenodd"/><path fill="#000000" fill-opacity="0.0" d="m413.94223 43.740204l0 0c-3.7790222 10.067238 -22.960266 12.517334 -42.8425 5.4724426c-19.882263 -7.0448914 -32.936523 -20.917015 -29.157501 -30.984253l0 0c3.7790222 -10.067237 22.960266 -12.517332 42.84253 -5.4724407c19.882263 7.0448933 32.936493 20.917013 29.15747 30.984251l-13.685028 36.456696c-3.7790222 10.067238 -22.960266 12.517334 -42.84253 5.4724426c-19.882233 -7.0448914 -32.936493 -20.917015 -29.15747 -30.984257l13.685028 -36.45669" fill-rule="evenodd"/><path fill="#ff9900" d="m473.83084 108.32856l0 0c2.313507 0 4.188965 -1.875473 4.188965 -4.18898l-4.188965 0c1.1567383 0 2.0944824 -0.9377289 2.0944824 -2.0944824c0 -1.1567535 -0.93774414 -2.09449 -2.0944824 -2.09449l4.188965 0l0 -73.32284l0 0c0 -2.313507 1.8754578 -4.1889763 4.1889954 -4.1889763l50.2677 0c2.3135376 0 4.188965 1.8754692 4.188965 4.1889763c0 2.313509 -1.8754272 4.1889763 -4.188965 4.1889763l-4.188965 0l0 73.32283c0 2.313507 -1.8754883 4.18898 -4.188965 4.18898zm12.566925 -81.70079l0 0c0 2.313509 -1.8754578 4.1889763 -4.188965 4.1889763c-1.1567688 0 -2.094513 -0.9377346 -2.094513 -2.0944881c0 -1.1567535 0.93774414 -2.0944881 2.094513 -2.0944881z" fill-rule="evenodd"/><path fill="#cb7a00" d="m486.39777 26.627771l0 0c0 2.313509 -1.8754578 4.1889763 -4.188965 4.1889763c-1.1567688 0 -2.094513 -0.9377346 -2.094513 -2.0944881c0 -1.1567535 0.93774414 -2.0944881 2.094513 -2.0944881zm-8.37796 77.51181c0 2.313507 -1.8754578 4.18898 -4.188965 4.18898c-2.313507 0 -4.1889954 -1.875473 -4.1889954 -4.18898c0 -2.313507 1.8754883 -4.1889725 4.1889954 -4.1889725l0 0c1.1567383 0 2.0944824 0.9377365 2.0944824 2.09449c0 1.1567535 -0.93774414 2.0944824 -2.0944824 2.0944824z" fill-rule="evenodd"/><path fill="#000000" fill-opacity="0.0" d="m478.0198 99.95061l0 -73.32284l0 0c0 -2.313507 1.8754578 -4.1889763 4.1889954 -4.1889763l50.2677 0c2.3135376 0 4.188965 1.8754692 4.188965 4.1889763c0 2.313509 -1.8754272 4.1889763 -4.188965 4.1889763l-4.188965 0l0 73.32283c0 2.313507 -1.8754883 4.18898 -4.188965 4.18898l-50.26773 0l0 0c-2.313507 0 -4.1889954 -1.875473 -4.1889954 -4.18898c0 -2.313507 1.8754883 -4.1889725 4.1889954 -4.1889725zm4.1889954 -77.51181l0 0c2.313507 0 4.188965 1.8754692 4.188965 4.1889763c0 2.313509 -1.8754578 4.1889763 -4.188965 4.1889763c-1.1567688 0 -2.094513 -0.9377346 -2.094513 -2.0944881c0 -1.1567535 0.93774414 -2.0944881 2.094513 -2.0944881l4.188965 0m41.88977 4.1889763l-46.078735 0m-8.37796 69.13386l0 0c1.1567383 0 2.0944824 0.9377365 2.0944824 2.09449c0 1.1567535 -0.93774414 2.0944824 -2.0944824 2.0944824l4.188965 0m-4.188965 4.18898l0 0c2.313507 0 4.188965 -1.875473 4.188965 -4.18898l0 -4.1889725" fill-rule="evenodd"/><path stroke="#000000" stroke-width="1.0" stroke-linejoin="round" stroke-linecap="butt" d="m478.0198 99.95061l0 -73.32284l0 0c0 -2.313507 1.8754578 -4.1889763 4.1889954 -4.1889763l50.2677 0c2.3135376 0 4.188965 1.8754692 4.188965 4.1889763c0 2.313509 -1.8754272 4.1889763 -4.188965 4.1889763l-4.188965 0l0 73.32283c0 2.313507 -1.8754883 4.18898 -4.188965 4.18898l-50.26773 0l0 0c-2.313507 0 -4.1889954 -1.875473 -4.1889954 -4.18898c0 -2.313507 1.8754883 -4.1889725 4.1889954 -4.1889725zm4.1889954 -77.51181l0 0c2.313507 0 4.188965 1.8754692 4.188965 4.1889763c0 2.313509 -1.8754578 4.1889763 -4.188965 4.1889763c-1.1567688 0 -2.094513 -0.9377346 -2.094513 -2.0944881c0 -1.1567535 0.93774414 -2.0944881 2.094513 -2.0944881l4.188965 0m41.88977 4.1889763l-46.078735 0m-8.37796 69.13386l0 0c1.1567383 0 2.0944824 0.9377365 2.0944824 2.09449c0 1.1567535 -0.93774414 2.0944824 -2.0944824 2.0944824l4.188965 0m-4.188965 4.18898l0 0c2.313507 0 4.188965 -1.875473 4.188965 -4.18898l0 -4.1889725" fill-rule="evenodd"/><path fill="#bf9000" d="m457.36746 46.740067l14.353424 -13.414894l-0.6635437 -19.63539l19.635376 0.6635599l13.414886 -14.3534355l13.414917 14.3534355l19.635376 -0.6635599l-0.6635742 19.63539l14.353455 13.414894l-14.353455 13.41489l0.6635742 19.635387l-19.635376 -0.66355896l-13.414917 14.353439l-13.414886 -14.353439l-19.635376 0.66355896l0.6635437 -19.635387z" fill-rule="evenodd"/><path stroke="#7f6000" stroke-width="1.0" stroke-linejoin="round" stroke-linecap="butt" d="m457.36746 46.740067l14.353424 -13.414894l-0.6635437 -19.63539l19.635376 0.6635599l13.414886 -14.3534355l13.414917 14.3534355l19.635376 -0.6635599l-0.6635742 19.63539l14.353455 13.414894l-14.353455 13.41489l0.6635742 19.635387l-19.635376 -0.66355896l-13.414917 14.353439l-13.414886 -14.353439l-19.635376 0.66355896l0.6635437 -19.635387z" fill-rule="evenodd"/><path fill="#666666" d="m522.7034 46.92651l-6.9142456 2.4588623l0 -4.9177246zm-5.0195923 -12.11586l-3.1495361 6.628418l-3.477295 -3.4773102zm-12.114288 -5.0179996l2.4588623 6.9142246l-4.9177246 0zm-12.115845 5.0179996l6.628418 3.1511078l-3.4773254 3.4773102zm-5.0180054 12.11586l6.914215 -2.4588623l0 4.9177246zm5.0180054 12.114273l3.1510925 -6.626831l3.4773254 3.4773064zm12.115845 5.019581l-2.4588623 -6.914219l4.9177246 0zm12.114288 -5.019581l-6.626831 -3.1495247l3.477295 -3.4773064zm-20.681213 -12.114273l0 0c0 -4.7313843 3.8355408 -8.566929 8.566925 -8.566929c4.7313843 0 8.566925 3.8355446 8.566925 8.566929c0 4.7313843 -3.8355408 8.566929 -8.566925 8.566929c-4.7313843 0 -8.566925 -3.8355446 -8.566925 -8.566929z" fill-rule="evenodd"/></g></svg>