<svg version="1.1" viewBox="0.0 0.0 563.0813648293963 204.23884514435696" fill="none" stroke="none" stroke-linecap="square" stroke-miterlimit="10" xmlns:xlink="http://www.w3.org/1999/xlink" xmlns="http://www.w3.org/2000/svg"><clipPath id="p.0"><path d="m0 0l563.08136 0l0 204.23885l-563.08136 0l0 -204.23885z" clip-rule="nonzero"/></clipPath><g clip-path="url(#p.0)"><path fill="#000000" fill-opacity="0.0" d="m0 0l563.08136 0l0 204.23885l-563.08136 0z" fill-rule="evenodd"/><path fill="#93c47d" d="m464.5775 149.45892l0 0c0 -18.621124 15.525482 -33.71653 34.677155 -33.71653l0 0c9.19696 0 18.017242 3.5522614 24.520477 9.875343c6.503235 6.3230743 10.156677 14.899002 10.156677 23.841187l0 0c0 18.621124 -15.525513 33.716537 -34.677155 33.716537l0 0c-19.151672 0 -34.677155 -15.095413 -34.677155 -33.716537z" fill-rule="evenodd"/><path stroke="#b6d7a8" stroke-width="1.0" stroke-linejoin="round" stroke-linecap="butt" d="m464.5775 149.45892l0 0c0 -18.621124 15.525482 -33.71653 34.677155 -33.71653l0 0c9.19696 0 18.017242 3.5522614 24.520477 9.875343c6.503235 6.3230743 10.156677 14.899002 10.156677 23.841187l0 0c0 18.621124 -15.525513 33.716537 -34.677155 33.716537l0 0c-19.151672 0 -34.677155 -15.095413 -34.677155 -33.716537z" fill-rule="evenodd"/><path fill="#6aa84f" d="m468.51358 139.58952l23.303009 1.5258789E-4l7.2008667 -22.436836l7.2008667 22.436836l23.302979 -1.5258789E-4l-18.85257 13.866577l7.2011414 22.436737l-18.852417 -13.866821l-18.852417 13.866821l7.201172 -22.436737z" fill-rule="evenodd"/><path stroke="#93c47d" stroke-width="1.0" stroke-linejoin="round" stroke-linecap="butt" d="m468.51358 139.58952l23.303009 1.5258789E-4l7.2008667 -22.436836l7.2008667 22.436836l23.302979 -1.5258789E-4l-18.85257 13.866577l7.2011414 22.436737l-18.852417 -13.866821l-18.852417 13.866821l7.201172 -22.436737z" fill-rule="evenodd"/><path fill="#93c47d" d="m560.4068 3.1755385l0 63.64422l-61.149567 48.922714l-61.149628 -48.922714l0 -63.64422z" fill-rule="evenodd"/><path stroke="#b6d7a8" stroke-width="1.0" stroke-linejoin="round" stroke-linecap="butt" d="m560.4068 3.1755385l0 63.64422l-61.149567 48.922714l-61.149628 -48.922714l0 -63.64422z" fill-rule="evenodd"/><path fill="#bf9000" d="m125.54068 3.1755385l0 63.64422l-61.149605 48.922714l-61.149605 -48.922714l0 -63.64422z" fill-rule="evenodd"/><path stroke="#f1c232" stroke-width="1.0" stroke-linejoin="round" stroke-linecap="butt" d="m125.54068 3.1755385l0 63.64422l-61.149605 48.922714l-61.149605 -48.922714l0 -63.64422z" fill-rule="evenodd"/><path fill="#bf9000" d="m126.10761 75.17554l0 17.141487l-61.716537 50.291588l-61.716534 -50.291588l0 -17.141487l61.716534 50.291588z" fill-rule="evenodd"/><path stroke="#f1c232" stroke-width="1.0" stroke-linejoin="round" stroke-linecap="butt" d="m126.10761 75.17554l0 17.141487l-61.716537 50.291588l-61.716534 -50.291588l0 -17.141487l61.716534 50.291588z" fill-rule="evenodd"/><path fill="#000000" fill-opacity="0.0" d="m9.530184 7.747717l112.0 0l0 56.0l-112.0 0z" fill-rule="evenodd"/><path fill="#f3f3f3" d="m62.84336 47.777092l0 -21.953127l1.4375 3.28125l-5.8125 2.734375l-1.109375 -5.875l7.6875 -3.75l4.25 0l0 25.562502l-6.453125 0zm-4.953125 1.890625l0 -5.796875l16.46875 0l0 5.796875l-16.46875 0z" fill-rule="nonzero"/><path fill="#b7b7b7" d="m270.68503 3.1755385l0 63.64422l-61.149597 48.922714l-61.149597 -48.922714l0 -63.64422z" fill-rule="evenodd"/><path stroke="#d9d9d9" stroke-width="1.0" stroke-linejoin="round" stroke-linecap="butt" d="m270.68503 3.1755385l0 63.64422l-61.149597 48.922714l-61.149597 -48.922714l0 -63.64422z" fill-rule="evenodd"/><path fill="#b7b7b7" d="m271.25198 75.17554l0 17.141487l-61.716553 50.291588l-61.716537 -50.291588l0 -17.141487l61.716537 50.291588z" fill-rule="evenodd"/><path stroke="#d9d9d9" stroke-width="1.0" stroke-linejoin="round" stroke-linecap="butt" d="m271.25198 75.17554l0 17.141487l-61.716553 50.291588l-61.716537 -50.291588l0 -17.141487l61.716537 50.291588z" fill-rule="evenodd"/><path fill="#b7b7b7" d="m271.25198 100.31727l0 17.141487l-61.716553 50.29158l-61.716537 -50.29158l0 -17.141487l61.716537 50.291588z" fill-rule="evenodd"/><path stroke="#d9d9d9" stroke-width="1.0" stroke-linejoin="round" stroke-linecap="butt" d="m271.25198 100.31727l0 17.141487l-61.716553 50.29158l-61.716537 -50.29158l0 -17.141487l61.716537 50.291588z" fill-rule="evenodd"/><path fill="#000000" fill-opacity="0.0" d="m153.53543 7.747717l112.0 0l0 56.0l-112.0 0z" fill-rule="evenodd"/><path fill="#f3f3f3" d="m201.22487 49.667717l-1.28125 -3.171875l7.890625 -8.625q0.65625 -0.734375 1.421875 -1.65625q0.78125 -0.921875 1.515625 -1.90625q0.734375 -1.0 1.171875 -1.921875q0.453125 -0.9218769 0.453125 -1.7031269q0 -0.765625 -0.359375 -1.34375q-0.34375 -0.578125 -1.0 -0.90625q-0.65625 -0.328125 -1.65625 -0.328125q-0.890625 0 -1.703125 0.4375q-0.8125 0.4375 -1.53125 1.375q-0.703125 0.921875 -1.328125 2.281252l-4.875 -2.625002q0.8125 -2.25 2.296875 -3.96875q1.5 -1.71875 3.5 -2.65625q2.015625 -0.953125 4.296875 -0.953125q2.390625 0.03125 4.328125 1.015625q1.9375 0.984375 3.078125 2.75q1.140625 1.75 1.140625 4.109375q0 0.8125 -0.203125 1.703125q-0.1875 0.8906269 -0.578125 1.8437519q-0.375 0.9375 -1.015625 2.0q-0.640625 1.0625 -1.53125 2.234375q-0.890625 1.15625 -2.09375 2.46875l-6.140625 6.6875l-0.765625 -2.9375l13.515625 0l0 5.796875l-18.546875 0z" fill-rule="nonzero"/><path fill="#f6b26b" d="m415.8294 3.1755385l0 63.64422l-61.149628 48.922714l-61.149597 -48.922714l0 -63.64422z" fill-rule="evenodd"/><path stroke="#f6b26b" stroke-width="1.0" stroke-linejoin="round" stroke-linecap="butt" d="m415.8294 3.1755385l0 63.64422l-61.149628 48.922714l-61.149597 -48.922714l0 -63.64422z" fill-rule="evenodd"/><path fill="#f6b26b" d="m416.39633 75.17554l0 17.141487l-61.716553 50.291588l-61.716522 -50.291588l0 -17.141487l61.716522 50.291588z" fill-rule="evenodd"/><path stroke="#f6b26b" stroke-width="1.0" stroke-linejoin="round" stroke-linecap="butt" d="m416.39633 75.17554l0 17.141487l-61.716553 50.291588l-61.716522 -50.291588l0 -17.141487l61.716522 50.291588z" fill-rule="evenodd"/><path fill="#f6b26b" d="m416.39633 100.31727l0 17.141487l-61.716553 50.29158l-61.716522 -50.29158l0 -17.141487l61.716522 50.291588z" fill-rule="evenodd"/><path stroke="#f6b26b" stroke-width="1.0" stroke-linejoin="round" stroke-linecap="butt" d="m416.39633 100.31727l0 17.141487l-61.716553 50.29158l-61.716522 -50.29158l0 -17.141487l61.716522 50.291588z" fill-rule="evenodd"/><path fill="#f6b26b" d="m416.39633 127.745094l0 17.141487l-61.716553 50.29158l-61.716522 -50.29158l0 -17.141487l61.716522 50.291588z" fill-rule="evenodd"/><path stroke="#f6b26b" stroke-width="1.0" stroke-linejoin="round" stroke-linecap="butt" d="m416.39633 127.745094l0 17.141487l-61.716553 50.29158l-61.716522 -50.29158l0 -17.141487l61.716522 50.291588z" fill-rule="evenodd"/><path fill="#000000" fill-opacity="0.0" d="m298.67978 7.747717l112.0 0l0 56.0l-112.0 0z" fill-rule="evenodd"/><path fill="#f3f3f3" d="m354.35062 50.058342q-3.28125 0 -5.734375 -1.375q-2.453125 -1.375 -4.46875 -4.734375l4.71875 -3.0625q0.84375 1.359375 1.75 2.171875q0.90625 0.8125 1.890625 1.1875q1.0 0.359375 2.078125 0.359375q1.078125 0 1.984375 -0.484375q0.90625 -0.484375 1.46875 -1.375q0.5625 -0.890625 0.5625 -2.0q0 -1.203125 -0.484375 -2.03125q-0.484375 -0.84375 -1.390625 -1.265625q-0.90625 -0.421875 -2.1875 -0.421875q-0.578125 0 -1.234375 0.140625q-0.65625 0.125 -1.390625 0.359375q-0.734375 0.234375 -1.5 0.625l-1.4375 -3.828125l6.578125 -7.156252l1.78125 0.96875l-11.296875 -0.234375l0 -5.53125l16.625 0l1.203125 2.40625l-8.9375 9.578127l-1.546875 -1.8125q0.3125 -0.15625 1.03125 -0.28125q0.71875 -0.140625 1.375 -0.140625q1.8125 0 3.390625 0.65625q1.59375 0.65625 2.828125 1.8125q1.234375 1.15625 1.921875 2.734375q0.703125 1.5625 0.703125 3.34375q0 2.703125 -1.375 4.8125q-1.375 2.09375 -3.71875 3.34375q-2.328125 1.234375 -5.1875 1.234375z" fill-rule="nonzero"/></g></svg>