<svg version="1.1" viewBox="0.0 0.0 800.0 600.0" fill="none" stroke="none" stroke-linecap="square" stroke-miterlimit="10" xmlns:xlink="http://www.w3.org/1999/xlink" xmlns="http://www.w3.org/2000/svg"><clipPath id="p.0"><path d="m0 0l800.0 0l0 600.0l-800.0 0l0 -600.0z" clip-rule="nonzero"/></clipPath><g clip-path="url(#p.0)"><path fill="#000000" fill-opacity="0.0" d="m0 0l800.0 0l0 600.0l-800.0 0z" fill-rule="evenodd"/><path fill="#93c47d" d="m251.29134 268.0l0 0c0 -82.12953 66.57915 -148.70866 148.70866 -148.70866q74.35434 0 148.70868 0q0 74.35434 0 148.70866l0 0c0 82.12952 -66.57916 148.70865 -148.70868 148.70865l0 0c-82.12952 0 -148.70866 -66.57913 -148.70866 -148.70865z" fill-rule="evenodd"/><path stroke="#b6d7a8" stroke-width="1.0" stroke-linejoin="round" stroke-linecap="butt" d="m251.29134 268.0l0 0c0 -82.12953 66.57915 -148.70866 148.70866 -148.70866q74.35434 0 148.70868 0q0 74.35434 0 148.70866l0 0c0 82.12952 -66.57916 148.70865 -148.70868 148.70865l0 0c-82.12952 0 -148.70866 -66.57913 -148.70866 -148.70865z" fill-rule="evenodd"/><path fill="#274e13" d="m548.7087 317.27298l0 0c0 78.746216 -66.57916 142.58267 -148.70868 142.58267c-82.12952 0 -148.70866 -63.836456 -148.70866 -142.58267l0 0c17.388687 65.127075 78.593 110.67978 148.70866 110.67978c70.11566 0 131.31995 -45.552704 148.70868 -110.67978z" fill-rule="evenodd"/><path stroke="#274e13" stroke-width="1.0" stroke-linejoin="round" stroke-linecap="butt" d="m548.7087 317.27298l0 0c0 78.746216 -66.57916 142.58267 -148.70868 142.58267c-82.12952 0 -148.70866 -63.836456 -148.70866 -142.58267l0 0c17.388687 65.127075 78.593 110.67978 148.70866 110.67978c70.11566 0 131.31995 -45.552704 148.70868 -110.67978z" fill-rule="evenodd"/><path fill="#274e13" d="m290.0952 243.34146l83.96054 5.493164E-4l25.944733 -79.79816l25.944702 79.79816l83.96057 -5.493164E-4l-67.92587 49.317413l25.9458 79.79782l-67.9252 -49.31833l-67.9252 49.31833l25.94577 -79.79782z" fill-rule="evenodd"/><path fill="#274e13" d="m548.7087 361.61942l0 0c0 78.74625 -66.57916 142.58267 -148.70868 142.58267c-82.12952 0 -148.70866 -63.836426 -148.70866 -142.58267l0 0c17.388687 65.127106 78.593 110.67981 148.70866 110.67981c70.11566 0 131.31995 -45.552704 148.70868 -110.67981z" fill-rule="evenodd"/><path stroke="#274e13" stroke-width="1.0" stroke-linejoin="round" stroke-linecap="butt" d="m548.7087 361.61942l0 0c0 78.74625 -66.57916 142.58267 -148.70868 142.58267c-82.12952 0 -148.70866 -63.836426 -148.70866 -142.58267l0 0c17.388687 65.127106 78.593 110.67981 148.70866 110.67981c70.11566 0 131.31995 -45.552704 148.70868 -110.67981z" fill-rule="evenodd"/></g></svg>