<?xml version="1.0" standalone="no"?>
<!DOCTYPE svg PUBLIC "-//W3C//DTD SVG 20010904//EN" "http://www.w3.org/TR/2001/REC-SVG-20010904/DTD/svg10.dtd">
<!-- Created using Krita: https://krita.org -->
<svg xmlns="http://www.w3.org/2000/svg" 
    xmlns:xlink="http://www.w3.org/1999/xlink"
    xmlns:krita="http://krita.org/namespaces/svg/krita"
    xmlns:sodipodi="http://sodipodi.sourceforge.net/DTD/sodipodi-0.dtd"
    width="252pt"
    height="252pt"
    viewBox="0 0 252 252">
<defs/>
<g id="group0" transform="translate(36.774792, 10.526775)" fill="none">
  <path id="shape0" transform="matrix(0.6 0 0 0.6 0 0)" fill="#93c47d" fill-rule="evenodd" stroke-opacity="0" stroke="#000000" stroke-width="0" stroke-linecap="square" stroke-linejoin="bevel" d="M0 148.709L0 148.709C0 66.5791 66.5792 0 148.709 0C198.278 0 247.848 0 297.417 0C297.417 49.5696 297.417 99.1391 297.417 148.709L297.417 148.709C297.417 230.838 230.838 297.417 148.709 297.417L148.709 297.417C66.5791 297.417 0 230.838 0 148.709Z" sodipodi:nodetypes="ccccccccc"/>
  <path id="shape1" transform="matrix(0.6 0 0 0.6 0 0)" fill="none" stroke="#b6d7a8" stroke-width="1" stroke-linecap="butt" stroke-linejoin="round" d="M0 148.709L0 148.709C0 66.5791 66.5792 0 148.709 0C198.278 0 247.848 0 297.417 0C297.417 49.5696 297.417 99.1391 297.417 148.709L297.417 148.709C297.417 230.838 230.838 297.417 148.709 297.417L148.709 297.417C66.5791 297.417 0 230.838 0 148.709Z" sodipodi:nodetypes="ccccccccc"/>
  <path id="shape2" transform="matrix(0.6 0 0 0.6 1.20000000265463e-05 118.788984)" fill="#274e13" fill-rule="evenodd" stroke-opacity="0" stroke="#000000" stroke-width="0" stroke-linecap="square" stroke-linejoin="bevel" d="M297.417 0L297.417 0C297.417 78.7462 230.838 142.583 148.709 142.583C66.5791 142.583 0 78.7462 0 0L0 0C17.3887 65.1271 78.593 110.68 148.709 110.68C218.824 110.68 280.029 65.1271 297.417 0Z" sodipodi:nodetypes="ccccccc"/>
  <path id="shape3" transform="matrix(0.6 0 0 0.6 1.20000000265463e-05 118.788984)" fill="none" stroke="#274e13" stroke-width="1" stroke-linecap="butt" stroke-linejoin="round" d="M297.417 0L297.417 0C297.417 78.7462 230.838 142.583 148.709 142.583C66.5791 142.583 0 78.7462 0 0L0 0C17.3887 65.1271 78.593 110.68 148.709 110.68C218.824 110.68 280.029 65.1271 297.417 0Z" sodipodi:nodetypes="ccccccc"/>
  <path id="shape4" transform="matrix(0.6 0 0 0.6 23.282316 26.55150558984)" fill="#274e13" fill-rule="evenodd" stroke-opacity="0" stroke="#000000" stroke-width="0" stroke-linecap="square" stroke-linejoin="bevel" d="M0 79.7976L83.9605 79.7982L109.905 0L135.85 79.7982L219.811 79.7976L151.885 129.115L177.83 208.913L109.905 159.595L41.9801 208.913L67.9258 129.115Z" sodipodi:nodetypes="ccccccccccc"/>
  <path id="shape5" transform="matrix(0.6 0 0 0.6 1.20000000265463e-05 145.396848)" fill="#274e13" fill-rule="evenodd" stroke-opacity="0" stroke="#000000" stroke-width="0" stroke-linecap="square" stroke-linejoin="bevel" d="M297.417 0L297.417 0C297.417 78.7463 230.838 142.583 148.709 142.583C66.5791 142.583 0 78.7462 0 0L0 0C17.3887 65.1271 78.593 110.68 148.709 110.68C218.824 110.68 280.029 65.1271 297.417 0Z" sodipodi:nodetypes="ccccccc"/>
  <path id="shape6" transform="matrix(0.6 0 0 0.6 1.20000000265463e-05 145.396848)" fill="none" stroke="#274e13" stroke-width="1" stroke-linecap="butt" stroke-linejoin="round" d="M297.417 0L297.417 0C297.417 78.7463 230.838 142.583 148.709 142.583C66.5791 142.583 0 78.7462 0 0L0 0C17.3887 65.1271 78.593 110.68 148.709 110.68C218.824 110.68 280.029 65.1271 297.417 0Z" sodipodi:nodetypes="ccccccc"/>
 </g>
</svg>
